<?xml version="1.0" standalone="no"?>
<!DOCTYPE svg PUBLIC "-//W3C//DTD SVG 20010904//EN"
 "http://www.w3.org/TR/2001/REC-SVG-20010904/DTD/svg10.dtd">
<svg version="1.0" xmlns="http://www.w3.org/2000/svg"
 width="913.000000pt" height="913.000000pt" viewBox="0 0 913.000000 913.000000"
 preserveAspectRatio="xMidYMid meet">
<metadata>
Created by potrace 1.14, written by Peter Selinger 2001-2017
</metadata>
<g transform="translate(0.000000,913.000000) scale(0.100000,-0.100000)"
fill="#000000" stroke="none">
<path d="M0 4565 l0 -4565 4565 0 4565 0 0 4565 0 4565 -4565 0 -4565 0 0
-4565z m3142 1450 c-1 -49 -5 -106 -8 -126 -5 -36 -6 -37 -62 -43 -127 -14
-216 -86 -251 -201 -30 -96 -37 -188 -91 -1250 -47 -914 -65 -1199 -78 -1219
-3 -5 160 -7 399 -3 444 7 483 11 592 69 188 100 300 311 325 608 l7 85 119 3
c66 1 123 -1 127 -5 6 -6 -57 -926 -71 -1050 0 -2 -537 -3 -1194 -3 l-1193 0
4 73 c10 187 9 187 69 187 17 0 55 7 85 16 106 32 163 122 189 299 5 39 32
502 60 1030 46 892 72 1272 87 1312 6 15 -9 16 -166 10 l-172 -6 6 142 c4 78
8 148 11 155 3 10 129 12 606 10 l603 -3 -3 -90z m2748 63 c0 -18 -3 -76 -6
-129 l-7 -96 -59 -7 c-153 -16 -237 -98 -268 -263 -6 -32 -19 -211 -30 -398
-10 -187 -22 -377 -25 -422 l-6 -83 175 0 174 0 254 387 c281 431 406 608 488
694 l55 57 -143 -5 -143 -6 6 139 c4 76 8 145 10 152 4 9 120 12 540 12 l536
0 -3 -127 -3 -127 -105 -17 c-138 -22 -181 -34 -260 -74 -125 -63 -242 -164
-357 -307 -29 -37 -170 -241 -313 -454 l-259 -386 57 -42 c105 -78 180 -175
465 -601 300 -450 365 -540 459 -641 101 -107 250 -194 335 -194 13 0 26 -7
29 -15 4 -9 3 -67 -1 -130 l-7 -115 -330 0 c-228 0 -336 4 -351 11 -73 39
-198 175 -334 364 -39 55 -180 266 -312 468 -259 395 -323 486 -415 584 l-58
63 -99 0 -98 0 -5 -42 c-3 -24 -15 -233 -26 -466 -12 -233 -27 -480 -35 -550
-8 -70 -15 -130 -15 -133 0 -3 77 -4 172 -1 l171 5 -6 -78 c-4 -43 -7 -111 -7
-152 l0 -73 -611 0 -611 0 7 123 c4 67 8 123 10 125 2 2 33 8 70 13 118 16
186 60 220 142 39 94 45 167 100 1204 30 571 62 1094 70 1163 8 69 15 134 15
144 0 18 -7 19 -165 13 l-165 -6 0 87 c0 48 3 117 7 155 l6 67 603 0 604 0 0
-32z"/>
</g>
</svg>
